<?xml version="1.0" encoding="utf-8"?>
<!-- Generator: Adobe Illustrator 22.0.1, SVG Export Plug-In . SVG Version: 6.00 Build 0)  -->
<svg version="1.1" id="Layer_1" xmlns="http://www.w3.org/2000/svg" xmlns:xlink="http://www.w3.org/1999/xlink" x="0px" y="0px"
	 viewBox="0 0 1762 384" style="enable-background:new 0 0 1762 384;" xml:space="preserve">
<style type="text/css">
	.st0{fill:#FFFFFD;stroke:#000000;stroke-miterlimit:10;}
	.st1{fill:#F9F9F9;stroke:#000000;stroke-miterlimit:10;}
	.st2{fill:#FFFFFF;stroke:#000000;stroke-miterlimit:10;}
	.st3{fill:#00FF00;stroke:#000000;stroke-width:2.6572;stroke-miterlimit:10;}
	.st4{fill:#FFFFFF;stroke:#000000;stroke-width:3;stroke-miterlimit:10;}
	.st5{fill:#FFFFFF;stroke:#000000;stroke-width:2.6619;stroke-miterlimit:10;}
	.st6{fill:#706BC9;stroke:#000000;stroke-width:3.8028;stroke-miterlimit:10;}
	.st7{fill:#00FF00;stroke:#000000;stroke-width:2.2817;stroke-miterlimit:10;}
	.st8{fill:#FFFFFF;stroke:#000000;stroke-width:1.5211;stroke-miterlimit:10;}
	.st9{fill:none;stroke:#000000;stroke-width:2.2817;stroke-miterlimit:10;}
	.st10{fill:none;stroke:#000000;stroke-width:1.5211;stroke-miterlimit:10;}
	.st11{fill:none;stroke:#000000;stroke-width:0.7606;stroke-miterlimit:10;}
	.st12{fill:#00FF00;stroke:#000000;stroke-width:3.0422;stroke-miterlimit:10;}
	.st13{fill:#00FF00;stroke:#000000;stroke-miterlimit:10;}
	.st14{fill:#00FF00;stroke:#000000;stroke-width:1.9014;stroke-miterlimit:10;}
	.st15{stroke:#000000;stroke-width:1.1408;stroke-miterlimit:10;}
	.st16{fill:none;stroke:#000000;stroke-width:1.9014;stroke-miterlimit:10;}
</style>
<g>
	<path class="st0" d="M99.4,35.5h23l-4.1,30.9c5.5,0.5,11,1.2,16.5,2.1c5.5,0.8,10.7,1.8,15.4,3v24.4c-5.8-1.5-11.7-2.7-17.6-3.8
		c-5.9-1.1-11.7-1.8-17.4-2.4l-9,67.8c7.1,2.7,14.1,5.7,21.1,8.9c7,3.2,13.2,7,18.8,11.4c5.5,4.4,10,9.6,13.5,15.6
		c3.4,6,5.1,13.2,5.1,21.5c0,8.9-1.8,16.7-5.4,23.6c-3.6,6.9-8.6,12.7-15,17.4c-6.4,4.7-14.2,8.5-23.3,11.2
		c-9.1,2.7-19.1,4.3-29.9,4.8l-5.2,37.7H62.7l5.2-37.7c-8.5-0.6-16.7-1.6-24.5-2.8c-7.8-1.2-14.5-2.6-20.2-4v-26.3
		c6.6,2.3,13.9,4.2,21.8,5.7c7.9,1.5,16.6,2.5,26.2,3l9.3-71.2c-6.9-2.6-13.6-5.5-20.3-8.5c-6.6-3.1-12.6-6.7-17.8-11
		c-5.2-4.3-9.5-9.3-12.7-15.1c-3.3-5.8-4.9-12.7-4.9-20.7c0-6.5,1.4-13,4.1-19.4c2.7-6.4,7-12.1,12.8-17.3c5.8-5.1,13.1-9.3,22-12.7
		c8.9-3.3,19.4-5.3,31.7-5.9L99.4,35.5z M92.3,89.3c-13.2,1.2-22.8,4.2-28.9,9.3c-6.1,5-9.1,11.4-9.1,19.2c0,7.3,2.5,13.3,7.5,18
		c5,4.7,12.5,9,22.4,12.9L92.3,89.3z M94.2,247.4c14.2-1.1,24.6-4.2,31.1-9.5c6.5-5.3,9.7-12.5,9.7-21.5c0-3.8-0.7-7.2-2.1-10.2
		c-1.4-3-3.4-5.7-6.2-8.2c-2.7-2.4-6.1-4.7-10.2-6.8c-4.1-2.1-8.8-4.2-14.3-6.3L94.2,247.4z"/>
	<path class="st0" d="M304.4,338.6c-48.7-45.1-73-94.9-73-149.4c0-12.8,1.3-25.5,3.9-38.2c2.6-12.7,6.8-25.5,12.5-38.2
		c5.8-12.8,13.3-25.5,22.8-38.3c9.4-12.8,20.9-25.4,34.4-38l16,16.3c-40.9,40.4-61.4,85.2-61.4,134.4c0,24.5,5.2,48,15.5,70.6
		c10.3,22.6,25.6,43.9,45.9,64L304.4,338.6z"/>
	<path class="st1" d="M598.3,36.4c48.7,45.1,73,95.2,73,150.4c0,11.4-1.2,23.2-3.5,35.5c-2.3,12.2-6.3,24.8-11.9,37.6
		c-5.6,12.8-13.1,25.8-22.6,39c-9.4,13.2-21.3,26.4-35.7,39.7l-16-16.3c20.6-20.4,35.9-41.6,46.1-63.8
		c10.1-22.2,15.2-45.4,15.2-69.7c0-50.2-20.4-95.4-61.3-135.5L598.3,36.4z"/>
	<path class="st2" d="M806.6,222.3c3.6,0,7,0.7,10.2,2.1c3.2,1.4,6,3.3,8.4,5.7c2.4,2.4,4.2,5.3,5.6,8.5c1.4,3.2,2.1,6.7,2.1,10.4
		c0,3.6-0.7,7-2.1,10.1c-1.4,3.2-3.2,5.9-5.6,8.3c-2.4,2.4-5.2,4.2-8.4,5.6c-3.2,1.4-6.6,2.1-10.2,2.1c-3.7,0-7.1-0.7-10.3-2.1
		c-3.2-1.4-5.9-3.2-8.3-5.6c-2.4-2.4-4.2-5.1-5.6-8.3c-1.4-3.2-2.1-6.5-2.1-10.1c0-3.7,0.7-7.1,2.1-10.4c1.4-3.2,3.2-6,5.6-8.5
		c2.4-2.4,5.1-4.3,8.3-5.7C799.5,222.9,802.9,222.3,806.6,222.3z"/>
	<path class="st2" d="M1058.1,200.1c0,11.4-1.6,21.7-4.8,30.9c-3.2,9.2-7.9,17.1-14.2,23.6c-6.2,6.5-13.9,11.5-22.9,15
		c-9,3.5-19.4,5.3-31.1,5.3c-12.9,0-23.8-1.7-32.8-5.1c-9-3.4-16.3-8.2-21.9-14.3c-5.6-6.2-9.8-13.6-12.3-22.2
		c-2.6-8.7-3.9-18.3-3.9-29V65.2h28.2v136.9c0,8.1,0.8,15.3,2.3,21.4c1.5,6.1,4,11.2,7.5,15.4c3.5,4.1,8,7.2,13.5,9.3
		c5.5,2.1,12.3,3.2,20.3,3.2c15,0,26-4.3,33.2-13c7.1-8.7,10.7-20.8,10.7-36.6V65.2h28.2V200.1z"/>
	<path class="st2" d="M1251.9,272.1h-30.7l-14.4-45.1h-86.1l-14.6,45.1h-29.3l68.7-206.9h38.6L1251.9,272.1z M1198.7,201.8
		l-35-110.7l-35,110.7H1198.7z"/>
	<path class="st3" d="M1411,264.4c-16.6,6.9-33.9,10.3-52.1,10.3c-29.2,0-51.7-8.7-67.4-26.2c-15.7-17.5-23.5-43.3-23.5-77.5
		c0-16.6,2.2-31.6,6.5-45c4.3-13.4,10.5-24.8,18.5-34.1c8-9.3,17.7-16.5,29.1-21.6c11.4-5.1,24.2-7.6,38.3-7.6
		c9.6,0,18.5,0.8,26.8,2.5c8.2,1.6,16.1,4.1,23.7,7.5v27.7c-7.5-4.1-15.3-7.3-23.3-9.4c-8-2.2-16.8-3.2-26.3-3.2
		c-9.7,0-18.5,1.8-26.4,5.5c-7.9,3.6-14.5,8.9-20,15.8c-5.5,6.9-9.7,15.4-12.7,25.3c-3,10-4.4,21.3-4.4,34.1
		c0,26.8,5.4,47,16.3,60.6c10.9,13.6,26.8,20.4,47.8,20.4c8.9,0,17.4-1,25.5-3.1c8.1-2.1,15.9-4.9,23.4-8.6V264.4z"/>
	<path class="st0" d="M1594.8,214h-35.3l-5.9,58.1h-23.4l5.9-58.1h-40.4l-5.9,58.1h-23.4l5.9-58.1h-33.7v-20.6h35.8l5.7-55.4h-33.4
		v-20.6h35.5l5.4-52.2h23.1l-5.2,52.2h40.5l5.4-52.2h23.4l-5.5,52.2h34V138h-36.1l-5.5,55.4h33.2V214z M1538.3,193.4l5.5-55.4h-40.5
		l-5.5,55.4H1538.3z"/>
</g>
<path class="st4" d="M529.7,23.2c-36.6,53-68.8,112-87.8,176.4L466,212c35.1-57.8,61.2-118.7,74.5-183.7L529.7,23.2z"/>
<polygon class="st5" points="417.7,269.8 431.8,275.5 466,212 441.6,199.5 "/>
<path class="st6" d="M400.6,296.1c-1.3-8.7,4.4-17.5,17.1-26.2l14.1,5.7c1.7,12.4,0.7,23.6-5.3,32.3c-1.3-2-1.5-5.3-1.1-9.1
	c-2.7,3.4-5.3,5-7.6,4.2c-2.8-0.5-4.1-1.9-4.6-3.8c-3.3,1.3-6.3,1.8-8.7,0.4C402,299.4,401,298,400.6,296.1z"/>
<path class="st7" d="M385.7,328.4c21.4,0.6,41.5,0,40.7-20.5c-1.2-1.9-1.6-5-1.1-9.1c-4.4,5.3-8.5,6.3-12.2,0
	c-6.1,2.5-10.3,1.7-12.5-2.7C387.7,297.6,404.4,317.8,385.7,328.4z"/>
<path class="st8" d="M421.1,307.9c-0.4,10.5-5.7,16.3-16.7,16.4C411.8,319.3,417.9,314.1,421.1,307.9z"/>
<path class="st9" d="M426.5,273.4c1,5.6,1.1,10.8,0,15.5c-0.9,3.7-2.6,7.1-5.3,9.9"/>
<path class="st10" d="M406.7,297.2l-0.4-0.4c-0.8-8.5,3.6-17.2,13.4-26.2"/>
<path class="st11" d="M412.7,294.9c-0.3-10.1,2.9-16.9,10.5-22.8"/>
<path class="st12" d="M418.8,333.7c4.1,13.3,37.3,14.8,45.6,0C466,322.7,424.2,313.6,418.8,333.7z"/>
<path class="st8" d="M436.3,336.8c12.2,2.8,19.9,1.9,21.7-3.8C451.6,335,444.5,336.4,436.3,336.8z"/>
<path class="st7" d="M441.8,343.1c2.7,11.1,30.2,11.1,30.2,0c0.8-4.8-7.6-8.7-14.1-4.2C450.5,342.4,445.5,343.4,441.8,343.1z"/>
<path class="st8" d="M447,345.1c5.9,6.4,22.8,4.6,20.9-2.3L447,345.1z"/>
<path class="st13" d="M457.6,199.5l8.4,5.3c18.4-31.5,48.3-89,63.9-149.1C503.6,116.2,474,177.1,457.6,199.5z"/>
<path class="st14" d="M362.6,319.7c0.6,1.3,2,2,3.8,2.3c3.3,5.1,9.6,5.3,18.6,0.8c-3.2-3.1-6.7-5.4-11.8-4.2
	C369.6,315.3,366,316.3,362.6,319.7z"/>
<line class="st10" x1="458.2" y1="214.5" x2="432.7" y2="266.2"/>
<polygon class="st15" points="441.6,230.3 445.5,233.7 428,268.7 426.1,267.6 "/>
<line class="st16" x1="447.5" y1="202.7" x2="421.1" y2="269.8"/>
<line class="st16" x1="438.6" y1="208.3" x2="461.7" y2="219.9"/>
<line class="st16" x1="435.8" y1="216.8" x2="457.6" y2="227.6"/>
</svg>
