<?xml version="1.0" encoding="utf-8"?>
<!-- Generator: Adobe Illustrator 22.0.1, SVG Export Plug-In . SVG Version: 6.00 Build 0)  -->
<svg version="1.1" id="Layer_1" xmlns="http://www.w3.org/2000/svg" xmlns:xlink="http://www.w3.org/1999/xlink" x="0px" y="0px"
	 viewBox="0 0 3065.8 392.9" style="enable-background:new 0 0 3065.8 392.9;" xml:space="preserve">
<style type="text/css">
	.st0{fill:#180E3F;}
	.st1{fill:#00FF00;stroke:#180E3F;stroke-width:2.5913;stroke-miterlimit:10;}
	.st2{fill:#180E3F;stroke:#000000;stroke-width:0.3709;stroke-miterlimit:10;}
	.st3{fill:#FFFFFF;stroke:#180E3F;stroke-width:2.596;stroke-miterlimit:10;}
	.st4{fill:#706BC9;stroke:#180E3F;stroke-width:3.7085;stroke-miterlimit:10;}
	.st5{fill:#00FF00;stroke:#180E3F;stroke-width:2.2251;stroke-miterlimit:10;}
	.st6{fill:#FFFFFF;stroke:#180E3F;stroke-width:1.4834;stroke-miterlimit:10;}
	.st7{fill:none;stroke:#000000;stroke-width:2.2251;stroke-miterlimit:10;}
	.st8{fill:none;stroke:#000000;stroke-width:1.4834;stroke-miterlimit:10;}
	.st9{fill:none;stroke:#000000;stroke-width:0.7417;stroke-miterlimit:10;}
	.st10{fill:#00FF00;stroke:#180E3F;stroke-width:2.9668;stroke-miterlimit:10;}
	.st11{fill:#00FF00;stroke:#180E3F;stroke-width:0.3709;stroke-miterlimit:10;}
	.st12{fill:#00FF00;stroke:#180E3F;stroke-width:1.8543;stroke-miterlimit:10;}
	.st13{fill:none;stroke:#180E3F;stroke-width:1.4834;stroke-miterlimit:10;}
	.st14{fill:#180E3F;stroke:#180E3F;stroke-width:1.1126;stroke-miterlimit:10;}
	.st15{fill:none;stroke:#180E3F;stroke-width:1.8543;stroke-miterlimit:10;}
</style>
<g>
	<path class="st0" d="M101,44.5h22.4l-4,30.1c5.4,0.5,10.7,1.2,16.1,2s10.4,1.8,15.1,2.9v23.8c-5.7-1.4-11.4-2.7-17.1-3.7
		c-5.8-1-11.4-1.8-17-2.3l-8.8,66.1c6.9,2.7,13.7,5.6,20.5,8.7c6.8,3.1,12.9,6.8,18.3,11.1c5.4,4.3,9.8,9.3,13.1,15.2s5,12.9,5,21
		c0,8.6-1.8,16.3-5.2,23c-3.5,6.7-8.4,12.4-14.7,17s-13.8,8.3-22.7,10.9s-18.6,4.2-29.2,4.7l-5.1,36.7H65.1l5.1-36.7
		c-8.3-0.6-16.3-1.5-23.9-2.7s-14.1-2.5-19.7-3.9v-25.6c6.5,2.3,13.6,4.1,21.2,5.6c7.7,1.4,16.2,2.4,25.6,2.9l9.1-69.5
		c-6.7-2.6-13.3-5.3-19.8-8.3s-12.3-6.6-17.4-10.7c-5.1-4.2-9.2-9.1-12.4-14.7c-3.2-5.7-4.8-12.4-4.8-20.2c0-6.4,1.3-12.7,4-18.9
		c2.7-6.2,6.8-11.8,12.5-16.8c5.7-5,12.8-9.1,21.5-12.3S85,74.7,97,74.1L101,44.5z M94,97c-12.9,1.1-22.3,4.1-28.2,9
		c-5.9,4.9-8.9,11.1-8.9,18.8c0,7.1,2.4,12.9,7.3,17.5s12.2,8.8,21.8,12.6L94,97z M95.9,251.2c13.9-1,24-4.1,30.3-9.3
		c6.3-5.1,9.5-12.1,9.5-21c0-3.7-0.7-7-2-10c-1.3-2.9-3.3-5.6-6-7.9c-2.7-2.4-6-4.6-10-6.6c-4-2.1-8.6-4.1-14-6.2L95.9,251.2z"/>
	<path class="st0" d="M300.9,340.1c-47.4-44-71.2-92.5-71.2-145.7c0-12.5,1.3-24.9,3.8-37.3c2.5-12.4,6.6-24.8,12.2-37.3
		c5.6-12.5,13-24.9,22.2-37.4c9.2-12.5,20.4-24.8,33.6-37.1l15.6,15.9c-39.9,39.4-59.9,83.1-59.9,131.1c0,23.9,5,46.8,15.1,68.9
		c10.1,22,25,42.8,44.8,62.4L300.9,340.1z"/>
	<path class="st0" d="M587.4,45.4c47.4,43.9,71.2,92.8,71.2,146.7c0,11.1-1.1,22.6-3.4,34.6c-2.3,11.9-6.1,24.2-11.6,36.7
		c-5.5,12.5-12.8,25.2-22,38.1s-20.8,25.8-34.8,38.8l-15.6-15.9c20.1-19.9,35-40.6,44.9-62.2s14.8-44.3,14.8-67.9
		c0-49-19.9-93-59.7-132.2L587.4,45.4z"/>
	<path class="st0" d="M790.6,226.6c3.5,0,6.8,0.7,10,2c3.1,1.3,5.9,3.2,8.2,5.6c2.3,2.4,4.1,5.1,5.5,8.3c1.3,3.1,2,6.5,2,10.1
		c0,3.5-0.7,6.8-2,9.9s-3.2,5.8-5.5,8.1c-2.3,2.3-5,4.1-8.2,5.5c-3.1,1.3-6.5,2-10,2c-3.6,0-6.9-0.7-10-2s-5.8-3.2-8.1-5.5
		s-4.1-5-5.5-8.1c-1.3-3.1-2-6.4-2-9.9c0-3.6,0.7-7,2-10.1s3.2-5.9,5.5-8.3c2.3-2.4,5-4.2,8.1-5.6
		C783.6,227.3,787,226.6,790.6,226.6z"/>
	<path class="st0" d="M1035.9,205c0,11.1-1.6,21.2-4.7,30.2s-7.7,16.7-13.8,23c-6.1,6.3-13.5,11.2-22.3,14.7s-18.9,5.2-30.3,5.2
		c-12.6,0-23.2-1.6-32-4.9c-8.7-3.3-15.9-8-21.4-14s-9.5-13.2-12-21.7c-2.5-8.4-3.8-17.9-3.8-28.3V73.5H923V207
		c0,7.9,0.7,14.9,2.2,20.8c1.5,6,3.9,11,7.3,15c3.4,4,7.8,7.1,13.2,9.1c5.4,2.1,12,3.1,19.8,3.1c14.6,0,25.4-4.2,32.3-12.7
		c6.9-8.4,10.4-20.3,10.4-35.7V73.5h27.5V205H1035.9z"/>
	<path class="st0" d="M1224.9,275.3H1195l-14.1-44h-84l-14.2,44h-28.6l67-201.8h37.7L1224.9,275.3z M1173,206.7l-34.1-107.9
		l-34.1,107.9H1173z"/>
	<path class="st1" d="M1380,267.7c-16.2,6.7-33.1,10-50.8,10c-28.5,0-50.4-8.5-65.7-25.5c-15.3-17-22.9-42.2-22.9-75.6
		c0-16.2,2.1-30.8,6.3-43.8c4.2-13.1,10.2-24.2,18.1-33.3c7.8-9.1,17.3-16.1,28.4-21.1c11.1-4.9,23.6-7.4,37.4-7.4
		c9.4,0,18.1,0.8,26.1,2.4s15.7,4,23.2,7.3v27c-7.3-4-14.9-7.1-22.7-9.2c-7.8-2.1-16.4-3.2-25.6-3.2c-9.5,0-18,1.8-25.7,5.3
		c-7.7,3.6-14.2,8.7-19.5,15.4c-5.4,6.7-9.5,15-12.4,24.7s-4.3,20.8-4.3,33.3c0,26.1,5.3,45.9,15.9,59.1
		c10.6,13.3,26.1,19.9,46.6,19.9c8.6,0,16.9-1,24.9-3s15.5-4.8,22.9-8.4v26.1H1380z"/>
	<path class="st0" d="M1559.3,218.6h-34.4l-5.7,56.7h-22.8l5.7-56.7h-39.4l-5.7,56.7h-22.8l5.7-56.7H1407v-20.1h34.9l5.6-54h-32.6
		v-20.1h34.6l5.2-50.9h22.5l-5.1,50.9h39.5l5.2-50.9h22.9l-5.4,50.9h33.2v20.1h-35.2l-5.4,54h32.4L1559.3,218.6L1559.3,218.6z
		 M1504.1,198.5l5.4-54H1470l-5.4,54H1504.1z"/>
	<text transform="matrix(1 0 0 1 -78.2769 203.7648)" style="font-family:'MyriadPro-Regular'; font-size:12px;"> </text>
</g>
<path class="st2" d="M520.5,32.5c-35.7,51.7-67.1,109.3-85.7,172.1l23.5,12.1C492.6,160.3,518,101,531,37.6L520.5,32.5z"/>
<polygon class="st3" points="411.3,273 425,278.6 458.4,216.7 434.7,204.4 "/>
<path class="st4" d="M394.6,298.6c-1.3-8.5,4.3-17.1,16.7-25.6l13.7,5.6c1.7,12.1,0.7,23-5.2,31.5c-1.3-1.9-1.5-5.1-1.1-8.9
	c-2.6,3.3-5.1,4.9-7.4,4.1c-2.7-0.5-4-1.9-4.5-3.7c-3.2,1.3-6.2,1.8-8.5,0.4C396,301.9,395.1,300.5,394.6,298.6z"/>
<path class="st5" d="M380.2,330.2c20.8,0.6,40.5,0,39.7-20c-1.2-1.9-1.5-4.9-1.1-8.9c-4.3,5.2-8.3,6.1-11.9,0
	c-5.9,2.4-10.1,1.7-12.2-2.6C382,300.1,398.3,319.8,380.2,330.2z"/>
<path class="st6" d="M414.7,310.1c-0.4,10.2-5.5,15.9-16.3,15.9C405.6,321.3,411.5,316.2,414.7,310.1z"/>
<path class="st7" d="M419.9,276.5c0.9,5.5,1.1,10.6,0,15.1c-0.9,3.6-2.5,6.9-5.2,9.6"/>
<path class="st8" d="M400.6,299.7l-0.4-0.4c-0.8-8.3,3.6-16.8,13.1-25.5"/>
<path class="st9" d="M406.5,297.5c-0.3-9.8,2.8-16.5,10.3-22.3"/>
<path class="st10" d="M412.4,335.3c4,12.9,36.3,14.5,44.5,0C458.4,324.6,417.6,315.7,412.4,335.3z"/>
<path class="st6" d="M429.5,338.3c11.9,2.7,19.4,1.9,21.1-3.7C444.4,336.6,437.5,338,429.5,338.3z"/>
<path class="st5" d="M434.9,344.5c2.6,10.9,29.5,10.9,29.5,0c0.7-4.7-7.4-8.5-13.7-4.1C443.3,343.8,438.4,344.8,434.9,344.5z"/>
<path class="st6" d="M439.9,346.5c5.8,6.3,22.3,4.5,20.4-2.2L439.9,346.5z"/>
<path class="st11" d="M450.3,204.4l8.2,5.2c18-30.7,47.1-86.8,62.3-145.4C495.1,123.2,466.2,182.6,450.3,204.4z"/>
<path class="st12" d="M357.5,321.6c0.6,1.3,1.9,1.9,3.7,2.2c3.2,5,9.3,5.2,18.2,0.7c-3.1-3-6.6-5.3-11.5-4.1
	C364.4,317.4,361,318.4,357.5,321.6z"/>
<line class="st13" x1="450.8" y1="219.1" x2="426" y2="269.5"/>
<polygon class="st14" points="434.7,234.5 438.4,237.8 421.3,271.9 419.5,270.8 "/>
<line class="st15" x1="440.4" y1="207.6" x2="414.7" y2="273"/>
<line class="st15" x1="431.7" y1="213.1" x2="454.3" y2="224.4"/>
<line class="st15" x1="428.9" y1="221.3" x2="450.3" y2="231.8"/>
</svg>
